<mxfile host="app.diagrams.net" modified="2023-12-25T02:39:37.998Z" agent="Mozilla/5.0 (Macintosh; Intel Mac OS X 10_15_7) AppleWebKit/537.36 (KHTML, like Gecko) Chrome/120.0.0.0 Safari/537.36" version="22.1.11" etag="eQKKropt_gW5oyx_E58m" type="github">
  <diagram name="ページ1" id="fdP3uANrPg6cW4hbZ88F">
    <mxGraphModel>
      <root>
        <mxCell id="0" />
        <mxCell id="1" parent="0" />
      </root>
    </mxGraphModel>
  </diagram>
</mxfile>
